<?xml version="1.0" encoding="iso-8859-1"?>
<!-- Generator: Adobe Illustrator 19.0.0, SVG Export Plug-In . SVG Version: 6.00 Build 0)  -->
<svg version="1.1" id="Layer_1" xmlns="http://www.w3.org/2000/svg" xmlns:xlink="http://www.w3.org/1999/xlink" x="0px" y="0px"
	 viewBox="0 0 512.007 512.007" style="enable-background:new 0 0 512.007 512.007;" xml:space="preserve">
<g>
	<g>
		<g>
			<path d="M76.803,341.337h8.533c4.71,0,8.533-3.823,8.533-8.533c0-4.71-3.823-8.533-8.533-8.533h-8.533
				c-4.71,0-8.533,3.823-8.533,8.533C68.269,337.514,72.092,341.337,76.803,341.337z"/>
			<path d="M93.869,238.937c4.71,0,8.533-3.823,8.533-8.533v-51.2c0-51.755,42.112-93.867,93.867-93.867h64.734L224.37,121.97
				c-3.337,3.337-3.337,8.73,0,12.066c1.664,1.664,3.849,2.5,6.033,2.5c2.185,0,4.369-0.836,6.033-2.5l51.192-51.2
				c0.794-0.785,1.417-1.724,1.852-2.773c0.862-2.082,0.862-4.437,0-6.519c-0.435-1.05-1.058-1.988-1.852-2.782L236.436,19.57
				c-3.336-3.337-8.73-3.337-12.066,0c-3.337,3.336-3.337,8.73,0,12.066l36.634,36.634h-64.734
				c-61.175,0-110.933,49.758-110.933,110.933v51.2C85.336,235.114,89.159,238.937,93.869,238.937z"/>
			<path d="M301.776,212.757c12.911-5.052,33.263-7.253,49.357-7.74l7.39,43.819c0.7,4.173,4.318,7.117,8.405,7.117
				c0.469,0,0.947-0.034,1.425-0.119c4.651-0.777,7.782-5.18,6.997-9.83l-8.593-51.038c-0.708-4.19-4.386-6.989-8.653-7.117
				c-7.177,0-40.695,0.478-62.541,9.003c-4.386,1.715-6.562,6.673-4.847,11.059C292.44,212.296,297.364,214.446,301.776,212.757z"/>
			<path d="M409.603,85.337h8.533c4.719,0,8.533-3.823,8.533-8.533s-3.814-8.533-8.533-8.533h-8.533
				c-4.719,0-8.533,3.823-8.533,8.533S404.884,85.337,409.603,85.337z"/>
			<path d="M366.936,85.337h8.533c4.719,0,8.533-3.823,8.533-8.533s-3.814-8.533-8.533-8.533h-8.533
				c-4.719,0-8.533,3.823-8.533,8.533S362.217,85.337,366.936,85.337z"/>
			<path d="M324.594,100.296c1.638,16.401,8.764,30.839,9.114,31.522c7.731,15.471,19.422,38.852,58.829,38.852
				s51.098-23.381,58.837-38.852c0.341-0.683,7.475-15.121,9.105-31.522c5.274-2.901,8.858-8.525,8.858-14.959V68.27
				c0-6.306-3.43-11.819-8.533-14.771v-2.295c0-28.237-22.963-51.2-51.2-51.2h-34.133c-28.237,0-51.2,22.963-51.2,51.2v2.295
				c-5.103,2.953-8.533,8.465-8.533,14.771v17.067C315.736,91.771,319.32,97.394,324.594,100.296z M332.803,68.27
				c4.719,0,8.533-3.823,8.533-8.533v-8.533c0-18.825,15.309-34.133,34.133-34.133h34.133c18.825,0,34.133,15.309,34.133,34.133
				v8.533c0,4.71,3.814,8.533,8.533,8.533v17.067c-4.719,0-8.533,3.823-8.533,8.533c0,14.763-7.56,30.174-7.629,30.319
				c-8.883,17.766-16.717,29.414-43.571,29.414c-26.846,0-34.679-11.648-43.554-29.406c-0.085-0.154-7.646-15.565-7.646-30.327
				c0-4.71-3.814-8.533-8.533-8.533V68.27z"/>
			<path d="M119.469,341.337h8.533c4.71,0,8.533-3.823,8.533-8.533c0-4.71-3.823-8.533-8.533-8.533h-8.533
				c-4.71,0-8.533,3.823-8.533,8.533C110.936,337.514,114.759,341.337,119.469,341.337z"/>
			<path d="M34.469,356.296c1.63,16.401,8.755,30.839,9.105,31.522c7.731,15.471,19.422,38.852,58.829,38.852
				c39.407,0,51.098-23.381,58.837-38.852c0.341-0.683,7.475-15.121,9.096-31.522c5.282-2.901,8.866-8.525,8.866-14.959V324.27
				c0-6.306-3.439-11.819-8.533-14.771v-2.295c0-28.237-22.963-51.2-51.2-51.2H85.336c-28.237,0-51.2,22.963-51.2,51.2v2.295
				c-5.094,2.953-8.533,8.465-8.533,14.771v17.067C25.603,347.771,29.187,353.394,34.469,356.296z M42.669,324.27
				c4.71,0,8.533-3.823,8.533-8.533v-8.533c0-18.825,15.309-34.133,34.133-34.133h34.133c18.825,0,34.133,15.309,34.133,34.133
				v8.533c0,4.71,3.823,8.533,8.533,8.533v17.067c-4.71,0-8.533,3.823-8.533,8.533c0,14.763-7.561,30.174-7.637,30.319
				c-8.875,17.766-16.708,29.414-43.563,29.414c-26.846,0-34.68-11.648-43.563-29.406c-0.077-0.154-7.637-15.565-7.637-30.327
				c0-4.71-3.823-8.533-8.533-8.533V324.27z"/>
			<path d="M506.627,196.876c-16.768-6.673-44.083-9.028-62.549-9.028c-4.267,0.068-8.055,2.901-8.755,7.125l-8.533,51.038
				c-0.777,4.651,2.355,9.045,7.006,9.822c0.478,0.085,0.947,0.119,1.417,0.119c4.096,0,7.706-2.953,8.405-7.125l7.33-43.81
				c17.135,0.521,37.419,2.961,49.365,7.714c4.412,1.741,9.353-0.393,11.085-4.77C513.146,203.575,511.004,198.617,506.627,196.876z
				"/>
			<path d="M401.069,273.07c-4.719,0-8.533,3.823-8.533,8.533c0,51.755-42.112,93.867-93.867,93.867h-64.734l36.634-36.634
				c3.337-3.336,3.337-8.73,0-12.066c-3.337-3.337-8.73-3.337-12.066,0l-51.2,51.2c-0.785,0.785-1.408,1.732-1.843,2.773
				c-0.862,2.082-0.862,4.437,0,6.519c0.435,1.041,1.058,1.988,1.843,2.773l51.2,51.2c1.664,1.664,3.849,2.5,6.033,2.5
				c2.185,0,4.369-0.836,6.033-2.5c3.337-3.337,3.337-8.73,0-12.066l-36.634-36.634h64.734c61.167,0,110.933-49.766,110.933-110.933
				C409.603,276.893,405.788,273.07,401.069,273.07z"/>
			<path d="M401.086,187.737c-9.421,0-17.084,7.654-17.084,17.067c0,6.289,3.465,11.733,8.55,14.694v27.972
				c0,4.71,3.814,8.533,8.533,8.533s8.533-3.823,8.533-8.533v-27.972c5.086-2.961,8.55-8.405,8.55-14.694
				C418.17,195.391,410.507,187.737,401.086,187.737z"/>
			<path d="M76.623,450.965c-0.691-4.105-4.25-7.108-8.405-7.117c-6.75-0.094-40.678,0.375-62.788,9.003
				c-4.386,1.715-6.554,6.673-4.847,11.059c1.715,4.386,6.665,6.545,11.059,4.847c12.911-5.052,33.254-7.253,49.357-7.74
				l7.39,43.819c0.7,4.173,4.318,7.117,8.405,7.117c0.469,0,0.947-0.034,1.425-0.12c4.651-0.776,7.782-5.18,6.997-9.83
				L76.623,450.965z"/>
			<path d="M110.953,443.737c-9.421,0-17.084,7.654-17.084,17.067c0,6.289,3.464,11.733,8.55,14.703v27.964
				c0,4.71,3.823,8.533,8.533,8.533c4.71,0,8.533-3.823,8.533-8.533v-27.964c5.086-2.97,8.55-8.414,8.55-14.703
				C128.037,451.391,120.374,443.737,110.953,443.737z"/>
			<path d="M216.493,452.876c-16.759-6.673-44.075-9.028-62.549-9.028c-4.335,0.026-8.055,2.901-8.755,7.125l-8.533,51.038
				c-0.777,4.651,2.364,9.045,7.006,9.822c0.478,0.085,0.947,0.12,1.417,0.12c4.096,0,7.714-2.953,8.405-7.125l7.33-43.81
				c17.135,0.521,37.419,2.961,49.365,7.714c4.369,1.749,9.344-0.393,11.085-4.77C223.004,459.575,220.871,454.617,216.493,452.876z
				"/>
		</g>
	</g>
</g>
<g>
</g>
<g>
</g>
<g>
</g>
<g>
</g>
<g>
</g>
<g>
</g>
<g>
</g>
<g>
</g>
<g>
</g>
<g>
</g>
<g>
</g>
<g>
</g>
<g>
</g>
<g>
</g>
<g>
</g>
</svg>
