<?xml version="1.0" encoding="iso-8859-1"?>
<!-- Generator: Adobe Illustrator 19.0.0, SVG Export Plug-In . SVG Version: 6.00 Build 0)  -->
<svg version="1.1" id="Layer_1" xmlns="http://www.w3.org/2000/svg" xmlns:xlink="http://www.w3.org/1999/xlink" x="0px" y="0px"
	 viewBox="0 0 512 512" style="enable-background:new 0 0 512 512;" xml:space="preserve">
<g>
	<g>
		<g>
			<path d="M110.925,153.592c4.361,0.085,8.525-3.806,8.542-8.508c0.017-5.231,1.937-128.017,136.533-128.017
				c24.132,0,33.801,5.222,35.703,8.311c0.273,0.435,0.998,1.604-0.674,4.941c-1.314,2.645-1.178,5.786,0.375,8.303
				c1.562,2.509,4.301,4.045,7.262,4.045c75.657,0,76.792,81.86,76.8,85.333v51.2c0,4.71,3.823,8.533,8.533,8.533
				c4.702,0,8.533,3.831,8.533,8.533V230.4c0,4.702-3.831,8.533-8.533,8.533c-3.678,0-6.929,2.347-8.098,5.837
				c-0.247,0.751-25.233,75.162-49.135,99.063c-3.336,3.336-3.336,8.73,0,12.066c1.664,1.664,3.849,2.5,6.033,2.5
				s4.369-0.836,6.033-2.5c23.083-23.083,45.235-82.807,51.533-100.702c11.051-2.833,19.234-12.877,19.234-24.798v-34.133
				c0-11.127-7.134-20.617-17.067-24.141V128c0-33.69-17.741-95.923-83.362-101.931c-0.137-4.028-1.468-7.27-2.944-9.668
				C297.848,2.85,274.287,0,256,0C104.158,0,102.4,143.616,102.4,145.067C102.4,149.777,106.214,153.592,110.925,153.592z"/>
			<path d="M374.98,432.35c-1.212-3.405-4.429-5.683-8.047-5.683H355.14l-6.17-12.348c-2.893-5.786-12.382-5.786-15.275,0
				l-6.17,12.348h-11.793c-3.695,0-6.972,2.381-8.115,5.897c-1.143,3.516,0.111,7.373,3.098,9.54l9.762,7.091l-4.011,11.187
				c-1.152,3.217-0.273,6.801,2.227,9.131c1.604,1.493,3.695,2.278,5.803,2.278c1.178,0,2.347-0.239,3.464-0.734l13.696-6.067
				l13.423,6.05c3.106,1.399,6.733,0.819,9.25-1.468c2.509-2.295,3.43-5.854,2.33-9.071l-3.772-11.042l9.412-7.629
				C375.117,439.561,376.184,435.755,374.98,432.35z M344.405,447.556c-0.879-0.29-1.801-0.444-2.722-0.444
				c-0.879,0-1.758,0.137-2.611,0.41c0.341-1.954-0.009-3.951-0.956-5.641c0.947-0.768,1.749-1.732,2.321-2.867l0.896-1.801
				l0.896,1.801c0.734,1.459,1.843,2.637,3.174,3.456C344.559,444.015,344.201,445.79,344.405,447.556z"/>
			<path d="M392.533,384c0-4.71-3.823-8.533-8.533-8.533H128c-4.71,0-8.533,3.823-8.533,8.533s3.823,8.533,8.533,8.533h256
				C388.71,392.533,392.533,388.71,392.533,384z"/>
			<path d="M121.634,255.198c6.298,17.894,28.45,77.619,51.533,100.702c1.664,1.664,3.849,2.5,6.033,2.5
				c2.185,0,4.369-0.836,6.033-2.5c3.337-3.337,3.337-8.73,0-12.066c-23.876-23.876-48.887-98.313-49.135-99.063
				c-1.161-3.49-4.429-5.837-8.098-5.837c-4.702,0-8.533-3.831-8.533-8.533v-34.133c0-2.313,0.922-4.412,2.423-5.948
				c3.089,6.955,9.421,13.21,20.045,14.268l29.201,21.897C173.414,243.106,187.554,256,204.8,256h17.067
				C240.691,256,256,240.691,256,221.867C256,240.691,271.309,256,290.133,256H307.2c17.246,0,31.386-12.894,33.664-29.517
				l31.189-23.39c3.772-2.825,4.531-8.175,1.707-11.947c-2.825-3.763-8.158-4.54-11.947-1.707l-21.751,16.316
				c-3.251-10.402-12.868-18.022-24.329-18.022H281.6c-14.114,0-25.6,11.486-25.6,25.6c0-14.114-11.486-25.6-25.6-25.6h-34.133
				c-11.46,0-21.069,7.62-24.329,18.022l-16.282-12.211c6.716-16.23,12.8-40.235,14.524-57.088
				c26.897-0.478,104.713-3.763,139.332-25.37c7.851,30.31,33.058,55.817,34.321,57.08c3.337,3.336,8.73,3.336,12.066,0
				c3.337-3.337,3.337-8.73,0-12.066c-0.316-0.316-31.633-31.983-31.633-62.234c0-3.831-2.56-7.202-6.255-8.226
				c-3.703-1.016-7.62,0.538-9.591,3.831c-12.425,20.693-93.022,29.995-146.287,29.995c-4.71,0-8.533,3.823-8.533,8.533
				c0,13.858-6.545,41.515-13.508,58.539c-2.722-1.638-3.49-4.693-3.558-7.339c0-4.71-3.823-8.533-8.533-8.533
				c-14.114,0-25.6,11.486-25.6,25.6V230.4C102.4,242.321,110.583,252.365,121.634,255.198z M273.067,213.333
				c0-4.702,3.831-8.533,8.533-8.533h34.133c4.702,0,8.533,3.831,8.533,8.533v8.533c0,9.412-7.654,17.067-17.067,17.067h-17.067
				c-9.412,0-17.067-7.654-17.067-17.067V213.333z M187.733,213.333c0-4.702,3.831-8.533,8.533-8.533H230.4
				c4.702,0,8.533,3.831,8.533,8.533v8.533c0,9.412-7.654,17.067-17.067,17.067H204.8c-9.412,0-17.067-7.654-17.067-17.067V213.333z
				"/>
			<path d="M289.647,432.35c-1.212-3.405-4.429-5.683-8.047-5.683h-11.793l-6.17-12.348c-2.893-5.786-12.382-5.786-15.266,0
				l-6.178,12.348H230.4c-3.695,0-6.972,2.381-8.115,5.897s0.111,7.373,3.098,9.54l9.762,7.091l-4.011,11.187
				c-1.152,3.217-0.273,6.801,2.227,9.131c1.604,1.493,3.695,2.278,5.803,2.278c1.178,0,2.347-0.239,3.465-0.734l13.696-6.067
				l13.423,6.05c3.098,1.399,6.733,0.819,9.25-1.468c2.509-2.295,3.43-5.854,2.33-9.071l-3.772-11.042l9.412-7.629
				C289.775,439.561,290.85,435.755,289.647,432.35z M259.072,447.556c-0.879-0.29-1.801-0.444-2.722-0.444
				c-0.879,0-1.766,0.137-2.611,0.41c0.341-1.954-0.009-3.951-0.956-5.641c0.947-0.768,1.749-1.732,2.321-2.867l0.896-1.801
				l0.896,1.801c0.734,1.459,1.843,2.637,3.174,3.456C259.226,444.015,258.867,445.79,259.072,447.556z"/>
			<path d="M479.164,426.667l31.71-55.501c1.51-2.645,1.502-5.888-0.026-8.516c-1.527-2.628-4.344-4.25-7.381-4.25h-85.333
				c-4.71,0-8.533,3.823-8.533,8.533v128H102.4v-128c0-4.71-3.823-8.533-8.533-8.533H8.533c-3.038,0-5.854,1.621-7.381,4.25
				c-1.527,2.628-1.536,5.871-0.026,8.516l31.71,55.501l-31.71,55.501c-1.51,2.645-1.502,5.888,0.026,8.516
				c1.527,2.628,4.343,4.25,7.381,4.25h51.2c4.71,0,8.533-3.823,8.533-8.533s-3.823-8.533-8.533-8.533H23.236l26.837-46.967
				c1.502-2.62,1.502-5.837,0-8.465l-26.837-46.967h62.097v128c0,4.71,3.823,8.533,8.533,8.533h324.267
				c4.71,0,8.533-3.823,8.533-8.533v-128h62.097l-26.837,46.967c-1.502,2.628-1.502,5.845,0,8.465l26.837,46.967h-36.497
				c-4.71,0-8.533,3.823-8.533,8.533s3.823,8.533,8.533,8.533h51.2c3.038,0,5.854-1.621,7.381-4.25
				c1.527-2.628,1.536-5.871,0.026-8.516L479.164,426.667z"/>
			<path d="M204.314,432.35c-1.212-3.405-4.429-5.683-8.047-5.683h-11.793l-6.17-12.348c-2.893-5.786-12.382-5.786-15.266,0
				l-6.178,12.348h-11.793c-3.695,0-6.972,2.381-8.115,5.897c-1.143,3.516,0.111,7.373,3.098,9.54l9.762,7.091l-4.011,11.187
				c-1.152,3.217-0.273,6.801,2.227,9.131c1.604,1.493,3.695,2.278,5.803,2.278c1.178,0,2.347-0.239,3.465-0.734l13.696-6.067
				l13.423,6.05c3.098,1.399,6.724,0.819,9.25-1.468c2.509-2.295,3.43-5.854,2.33-9.071l-3.772-11.042l9.412-7.629
				C204.442,439.561,205.517,435.755,204.314,432.35z M173.739,447.556c-0.879-0.29-1.801-0.444-2.722-0.444
				c-0.879,0-1.766,0.137-2.611,0.41c0.341-1.954-0.009-3.951-0.956-5.641c0.947-0.768,1.749-1.732,2.321-2.867l0.896-1.801
				l0.896,1.801c0.734,1.459,1.843,2.637,3.174,3.456C173.892,444.015,173.534,445.79,173.739,447.556z"/>
			<path d="M256,349.867c28.305,0,40.209-27.008,42.556-41.284c0.401-2.475-0.299-5-1.92-6.903
				c-1.621-1.911-4.002-3.012-6.502-3.012h-68.267c-2.5,0-4.881,1.101-6.502,3.012c-1.621,1.903-2.321,4.429-1.92,6.903
				C215.791,322.859,227.695,349.867,256,349.867z M278.605,315.733C275.217,323.439,268.527,332.8,256,332.8
				c-12.535,0-19.217-9.361-22.605-17.067H278.605z"/>
		</g>
	</g>
</g>
<g>
</g>
<g>
</g>
<g>
</g>
<g>
</g>
<g>
</g>
<g>
</g>
<g>
</g>
<g>
</g>
<g>
</g>
<g>
</g>
<g>
</g>
<g>
</g>
<g>
</g>
<g>
</g>
<g>
</g>
</svg>
