<?xml version="1.0" encoding="iso-8859-1"?>
<!-- Generator: Adobe Illustrator 19.0.0, SVG Export Plug-In . SVG Version: 6.00 Build 0)  -->
<svg version="1.1" id="Layer_1" xmlns="http://www.w3.org/2000/svg" xmlns:xlink="http://www.w3.org/1999/xlink" x="0px" y="0px"
	 viewBox="0 0 512 512" style="enable-background:new 0 0 512 512;" xml:space="preserve">
<g>
	<g>
		<g>
			<path d="M287.633,463.3c-3.337-3.337-8.73-3.337-12.066,0c-3.337,3.336-3.337,8.73,0,12.066L309.7,509.5
				c1.664,1.664,3.849,2.5,6.033,2.5c2.185,0,4.369-0.836,6.033-2.5c3.337-3.336,3.337-8.73,0-12.066L287.633,463.3z"/>
			<path d="M256,409.6c-4.71,0-8.533,3.823-8.533,8.533v22.067l-57.233,57.233c-3.336,3.337-3.336,8.73,0,12.066
				c1.664,1.664,3.849,2.5,6.033,2.5c2.185,0,4.369-0.836,6.033-2.5l59.733-59.733c1.596-1.596,2.5-3.772,2.5-6.033v-25.6
				C264.533,413.423,260.71,409.6,256,409.6z"/>
			<path d="M503.467,17.067H264.533V8.533C264.533,3.823,260.71,0,256,0s-8.533,3.823-8.533,8.533v8.533H8.533
				C3.823,17.067,0,20.89,0,25.6v34.133c0,4.71,3.823,8.533,8.533,8.533h443.733c4.71,0,8.533-3.823,8.533-8.533
				s-3.823-8.533-8.533-8.533h-435.2V34.133h477.867V51.2H486.4c-4.71,0-8.533,3.823-8.533,8.533v290.133
				c0,14.114-11.486,25.6-25.6,25.6H59.733c-14.114,0-25.6-11.486-25.6-25.6v-256c0-4.71-3.823-8.533-8.533-8.533
				c-4.71,0-8.533,3.823-8.533,8.533v256c0,23.526,19.14,42.667,42.667,42.667h392.533c23.526,0,42.667-19.14,42.667-42.667v-281.6
				h8.533c4.71,0,8.533-3.823,8.533-8.533V25.6C512,20.89,508.177,17.067,503.467,17.067z"/>
			<path d="M104.9,304.7c1.664,1.664,3.849,2.5,6.033,2.5c2.185,0,4.369-0.836,6.033-2.5l62.071-62.071
				c5.077,3.004,10.914,4.838,17.229,4.838c6.315,0,12.151-1.835,17.229-4.838l45.005,45.005c1.664,1.664,3.849,2.5,6.033,2.5
				c2.185,0,4.369-0.836,6.033-2.5l87.671-87.672c5.077,3.004,10.914,4.838,17.229,4.838c18.825,0,34.133-15.309,34.133-34.133
				s-15.309-34.133-34.133-34.133c-18.825,0-34.133,15.309-34.133,34.133c0,6.315,1.835,12.151,4.838,17.229l-81.638,81.638
				l-38.972-38.972c3.004-5.077,4.838-10.914,4.838-17.229c0-18.825-15.309-34.133-34.133-34.133s-34.133,15.309-34.133,34.133
				c0,6.315,1.835,12.151,4.838,17.229L104.9,292.634C101.564,295.97,101.564,301.363,104.9,304.7z M375.467,153.6
				c9.412,0,17.067,7.654,17.067,17.067c0,9.412-7.654,17.067-17.067,17.067c-4.651,0-8.875-1.886-11.955-4.915
				c-0.034-0.034-0.043-0.085-0.077-0.119c-0.034-0.034-0.085-0.043-0.119-0.077c-3.029-3.081-4.915-7.305-4.915-11.955
				C358.4,161.254,366.054,153.6,375.467,153.6z M196.267,196.267c9.412,0,17.067,7.654,17.067,17.067
				c0,9.412-7.654,17.067-17.067,17.067c-9.412,0-17.067-7.654-17.067-17.067C179.2,203.921,186.854,196.267,196.267,196.267z"/>
		</g>
	</g>
</g>
<g>
</g>
<g>
</g>
<g>
</g>
<g>
</g>
<g>
</g>
<g>
</g>
<g>
</g>
<g>
</g>
<g>
</g>
<g>
</g>
<g>
</g>
<g>
</g>
<g>
</g>
<g>
</g>
<g>
</g>
</svg>
