<?xml version="1.0" encoding="iso-8859-1"?>
<!-- Generator: Adobe Illustrator 19.0.0, SVG Export Plug-In . SVG Version: 6.00 Build 0)  -->
<svg version="1.1" id="Layer_1" xmlns="http://www.w3.org/2000/svg" xmlns:xlink="http://www.w3.org/1999/xlink" x="0px" y="0px"
	 viewBox="0 0 512 512" style="enable-background:new 0 0 512 512;" xml:space="preserve">
<g>
	<g>
		<g>
			<path d="M256,409.6c-4.71,0-8.533,3.823-8.533,8.533v22.067l-57.233,57.233c-3.336,3.337-3.336,8.73,0,12.066
				c1.664,1.664,3.849,2.5,6.033,2.5c2.185,0,4.369-0.836,6.033-2.5l59.733-59.733c1.596-1.596,2.5-3.772,2.5-6.033v-25.6
				C264.533,413.423,260.71,409.6,256,409.6z"/>
			<path d="M287.633,463.3c-3.337-3.337-8.73-3.337-12.066,0c-3.337,3.336-3.337,8.73,0,12.066L309.7,509.5
				c1.664,1.664,3.849,2.5,6.033,2.5c2.185,0,4.369-0.836,6.033-2.5c3.337-3.336,3.337-8.73,0-12.066L287.633,463.3z"/>
			<path d="M145.067,238.933h-34.133c-4.71,0-8.533,3.823-8.533,8.533v51.2c0,4.71,3.823,8.533,8.533,8.533s8.533-3.823,8.533-8.533
				V256h17.067v42.667c0,4.71,3.823,8.533,8.533,8.533H179.2c4.71,0,8.533-3.823,8.533-8.533V187.733H204.8v110.933
				c0,4.71,3.823,8.533,8.533,8.533h34.133c4.71,0,8.533-3.823,8.533-8.533v-76.8h17.067v76.8c0,4.71,3.814,8.533,8.533,8.533
				h34.133c4.719,0,8.533-3.823,8.533-8.533V187.733h17.067v110.933c0,4.71,3.814,8.533,8.533,8.533H384
				c4.719,0,8.533-3.823,8.533-8.533V153.6h8.533c4.719,0,8.533-3.823,8.533-8.533c0-4.71-3.814-8.533-8.533-8.533H384
				c-4.719,0-8.533,3.823-8.533,8.533v145.067H358.4V179.2c0-4.71-3.814-8.533-8.533-8.533h-34.133
				c-4.719,0-8.533,3.823-8.533,8.533v110.933h-17.067v-76.8c0-4.71-3.814-8.533-8.533-8.533h-34.133
				c-4.71,0-8.533,3.823-8.533,8.533v76.8h-17.067V179.2c0-4.71-3.823-8.533-8.533-8.533H179.2c-4.71,0-8.533,3.823-8.533,8.533
				v110.933H153.6v-42.667C153.6,242.756,149.777,238.933,145.067,238.933z"/>
			<path d="M503.467,17.067H264.533V8.533C264.533,3.823,260.71,0,256,0s-8.533,3.823-8.533,8.533v8.533H8.533
				C3.823,17.067,0,20.89,0,25.6v34.133c0,4.71,3.823,8.533,8.533,8.533h443.733c4.719,0,8.533-3.823,8.533-8.533
				s-3.814-8.533-8.533-8.533h-435.2V34.133h477.867V51.2H486.4c-4.719,0-8.533,3.823-8.533,8.533v290.133
				c0,14.114-11.486,25.6-25.6,25.6H59.733c-14.114,0-25.6-11.486-25.6-25.6v-256c0-4.71-3.823-8.533-8.533-8.533
				c-4.71,0-8.533,3.823-8.533,8.533v256c0,23.526,19.14,42.667,42.667,42.667h392.533c23.526,0,42.667-19.14,42.667-42.667v-281.6
				h8.533c4.719,0,8.533-3.823,8.533-8.533V25.6C512,20.89,508.186,17.067,503.467,17.067z"/>
		</g>
	</g>
</g>
<g>
</g>
<g>
</g>
<g>
</g>
<g>
</g>
<g>
</g>
<g>
</g>
<g>
</g>
<g>
</g>
<g>
</g>
<g>
</g>
<g>
</g>
<g>
</g>
<g>
</g>
<g>
</g>
<g>
</g>
</svg>
