<?xml version="1.0" encoding="iso-8859-1"?>
<!-- Generator: Adobe Illustrator 19.0.0, SVG Export Plug-In . SVG Version: 6.00 Build 0)  -->
<svg version="1.1" id="Layer_1" xmlns="http://www.w3.org/2000/svg" xmlns:xlink="http://www.w3.org/1999/xlink" x="0px" y="0px"
	 viewBox="0 0 512.003 512.003" style="enable-background:new 0 0 512.003 512.003;" xml:space="preserve">
<g>
	<g>
		<path d="M510.643,443.257l-247.467-384c-3.149-4.881-11.204-4.881-14.353,0l-247.467,384c-1.69,2.62-1.809,5.956-0.316,8.695
			c1.493,2.748,4.369,4.454,7.492,4.454h460.8c4.719,0,8.533-3.823,8.533-8.533s-3.814-8.533-8.533-8.533H384v-68.267h59.819
			l52.471,81.425c1.638,2.526,4.386,3.908,7.185,3.908c1.579,0,3.183-0.435,4.617-1.365
			C512.051,452.499,513.195,447.208,510.643,443.257z M256,79.626l66.833,103.714H208.265c-4.719,0-8.533,3.823-8.533,8.533
			c0,4.71,3.814,8.533,8.533,8.533h39.202v68.267H134.17L256,79.626z M307.2,285.74v68.267H204.8V285.74H307.2z M128,439.34H24.184
			l98.987-153.6h64.563v68.267h-89.6c-4.719,0-8.533,3.823-8.533,8.533c0,4.71,3.814,8.533,8.533,8.533H128V439.34z M247.467,439.34
			h-102.4v-68.267h102.4V439.34z M366.934,439.34h-102.4v-68.267h102.4V439.34z M324.267,354.007V285.74H358.4
			c4.719,0,8.533-3.823,8.533-8.533s-3.814-8.533-8.533-8.533h-93.867v-68.267h69.299l98.995,153.6H324.267z"/>
	</g>
</g>
<g>
</g>
<g>
</g>
<g>
</g>
<g>
</g>
<g>
</g>
<g>
</g>
<g>
</g>
<g>
</g>
<g>
</g>
<g>
</g>
<g>
</g>
<g>
</g>
<g>
</g>
<g>
</g>
<g>
</g>
</svg>
