<?xml version="1.0" encoding="iso-8859-1"?>
<!-- Generator: Adobe Illustrator 19.0.0, SVG Export Plug-In . SVG Version: 6.00 Build 0)  -->
<svg version="1.1" id="Layer_1" xmlns="http://www.w3.org/2000/svg" xmlns:xlink="http://www.w3.org/1999/xlink" x="0px" y="0px"
	 viewBox="0 0 512 512" style="enable-background:new 0 0 512 512;" xml:space="preserve">
<g>
	<g>
		<g>
			<path d="M349.867,375.467c-4.719,0-8.533,3.823-8.533,8.533s3.814,8.533,8.533,8.533h51.2c4.719,0,8.533-3.823,8.533-8.533
				s-3.814-8.533-8.533-8.533H349.867z"/>
			<path d="M247.467,273.067h-34.133c-4.719,0-8.533,3.823-8.533,8.533v51.2c0,4.71,3.814,8.533,8.533,8.533
				c4.719,0,8.533-3.823,8.533-8.533v-42.667h17.067V332.8c0,4.71,3.814,8.533,8.533,8.533H281.6c4.719,0,8.533-3.823,8.533-8.533
				V221.867H307.2V332.8c0,4.71,3.814,8.533,8.533,8.533h34.133c4.719,0,8.533-3.823,8.533-8.533V256h17.067v76.8
				c0,4.71,3.814,8.533,8.533,8.533h34.133c4.719,0,8.533-3.823,8.533-8.533V153.6h8.533c4.719,0,8.533-3.823,8.533-8.533
				c0-4.71-3.814-8.533-8.533-8.533h-17.067c-4.719,0-8.533,3.823-8.533,8.533v179.2h-17.067v-76.8c0-4.71-3.814-8.533-8.533-8.533
				h-34.133c-4.719,0-8.533,3.823-8.533,8.533v76.8h-17.067V213.333c0-4.71-3.814-8.533-8.533-8.533H281.6
				c-4.719,0-8.533,3.823-8.533,8.533v110.933H256V281.6C256,276.89,252.186,273.067,247.467,273.067z"/>
			<path d="M469.333,68.267H170.667c-4.719,0-8.533,3.823-8.533,8.533s3.814,8.533,8.533,8.533h298.667
				c14.114,0,25.6,11.486,25.6,25.6v384H153.6v-384c0-23.526-19.14-42.667-42.667-42.667c-23.526,0-42.667,19.14-42.667,42.667
				v290.133c0,14.114-11.486,25.6-25.6,25.6s-25.6-11.486-25.6-25.6v-384H358.4v25.6c0,4.71,3.814,8.533,8.533,8.533
				s8.533-3.823,8.533-8.533V8.533c0-4.71-3.814-8.533-8.533-8.533H8.533C3.814,0,0,3.823,0,8.533v392.533
				c0,23.526,19.14,42.667,42.667,42.667c23.526,0,42.667-19.14,42.667-42.667V110.933c0-14.114,11.486-25.6,25.6-25.6
				s25.6,11.486,25.6,25.6v315.733H93.867c-4.719,0-8.533,3.823-8.533,8.533s3.814,8.533,8.533,8.533h42.667v59.733
				c0,4.71,3.814,8.533,8.533,8.533h358.4c4.719,0,8.533-3.823,8.533-8.533V110.933C512,87.407,492.86,68.267,469.333,68.267z"/>
			<path d="M213.333,392.533h102.4c4.719,0,8.533-3.823,8.533-8.533s-3.814-8.533-8.533-8.533h-102.4
				c-4.719,0-8.533,3.823-8.533,8.533S208.614,392.533,213.333,392.533z"/>
			<path d="M213.333,443.733H435.2c4.719,0,8.533-3.823,8.533-8.533s-3.814-8.533-8.533-8.533H213.333
				c-4.719,0-8.533,3.823-8.533,8.533S208.614,443.733,213.333,443.733z"/>
		</g>
	</g>
</g>
<g>
</g>
<g>
</g>
<g>
</g>
<g>
</g>
<g>
</g>
<g>
</g>
<g>
</g>
<g>
</g>
<g>
</g>
<g>
</g>
<g>
</g>
<g>
</g>
<g>
</g>
<g>
</g>
<g>
</g>
</svg>
