<?xml version="1.0" encoding="iso-8859-1"?>
<!-- Generator: Adobe Illustrator 19.0.0, SVG Export Plug-In . SVG Version: 6.00 Build 0)  -->
<svg version="1.1" id="Layer_1" xmlns="http://www.w3.org/2000/svg" xmlns:xlink="http://www.w3.org/1999/xlink" x="0px" y="0px"
	 viewBox="0 0 512 512" style="enable-background:new 0 0 512 512;" xml:space="preserve">
<g>
	<g>
		<g>
			<path d="M273.715,250.726c1.314,3.191,4.437,5.274,7.885,5.274h221.867c4.719,0,8.533-3.823,8.533-8.533
				c0-70.289-20.941-126.865-62.234-168.166c-3.336-3.337-8.73-3.337-12.066,0c-3.336,3.336-3.336,8.73,0,12.066
				c36.318,36.318,55.509,85.939,57.122,147.567H302.217l122.078-121.967c3.328-3.337,3.328-8.73,0-12.075
				c-3.337-3.328-8.738-3.328-12.066,0L275.567,241.425C273.126,243.874,272.393,247.543,273.715,250.726z"/>
			<path d="M503.467,273.067c-4.719,0-8.533,3.823-8.533,8.533c0,118.758-87.441,209.007-204.8,213.18V290.133h179.2
				c4.719,0,8.533-3.823,8.533-8.533s-3.814-8.533-8.533-8.533H281.6c-4.719,0-8.533,3.823-8.533,8.533v221.867
				c0,4.71,3.814,8.533,8.533,8.533C412.954,512,512,412.954,512,281.6C512,276.89,508.186,273.067,503.467,273.067z"/>
			<path d="M398.566,79.3C361.651,42.377,310.144,0,238.933,0C107.179,0,0,107.179,0,238.933
				c0,129.519,113.323,238.933,247.467,238.933c4.719,0,8.533-3.823,8.533-8.533s-3.814-8.533-8.533-8.533
				c-124.894,0-230.4-101.606-230.4-221.867c0-122.334,99.524-221.867,221.867-221.867c61.227,0,107.418,35.285,141.483,68.309
				L241.434,224.367c-1.604,1.596-2.5,3.772-2.5,6.033v204.8c0,4.71,3.814,8.533,8.533,8.533S256,439.91,256,435.2V233.933
				L398.566,91.366C401.903,88.03,401.903,82.637,398.566,79.3z"/>
		</g>
	</g>
</g>
<g>
</g>
<g>
</g>
<g>
</g>
<g>
</g>
<g>
</g>
<g>
</g>
<g>
</g>
<g>
</g>
<g>
</g>
<g>
</g>
<g>
</g>
<g>
</g>
<g>
</g>
<g>
</g>
<g>
</g>
</svg>
