<?xml version="1.0" encoding="iso-8859-1"?>
<!-- Generator: Adobe Illustrator 19.0.0, SVG Export Plug-In . SVG Version: 6.00 Build 0)  -->
<svg version="1.1" id="Layer_1" xmlns="http://www.w3.org/2000/svg" xmlns:xlink="http://www.w3.org/1999/xlink" x="0px" y="0px"
	 viewBox="0 0 512 512" style="enable-background:new 0 0 512 512;" xml:space="preserve">
<g>
	<g>
		<path d="M503.467,290.133H486.4c-18.475,0-34.56-32.435-50.116-63.804c-20.873-42.086-44.544-89.796-86.417-89.796
			c-42.283,0-62.225,47.983-79.829,90.308c-12.937,31.121-26.317,63.292-44.382,63.292c-18.569,0-24.346-14.029-32.23-36.915
			c-7.424-21.564-16.674-48.418-48.358-48.418c-29.073,0-40.286,22.758-50.185,42.837c-11.238,22.801-20.941,42.496-52.215,42.496
			h-8.533v-230.4c0-14.114,11.486-25.6,25.6-25.6h392.533c14.114,0,25.6,11.486,25.6,25.6v204.8c0,4.71,3.823,8.533,8.533,8.533
			s8.533-3.823,8.533-8.533v-204.8c0-23.526-19.14-42.667-42.667-42.667H59.733c-23.526,0-42.667,19.14-42.667,42.667v230.4H8.533
			c-4.71,0-8.533,3.823-8.533,8.533s3.823,8.533,8.533,8.533h34.133c41.89,0,56.107-28.843,67.524-52.019
			c10.487-21.274,17.28-33.314,34.876-33.314c18.569,0,24.346,14.029,32.23,36.915c6.904,20.062,15.394,44.689,42.035,48.034
			c0.794,0.247,1.647,0.384,2.534,0.384h3.789c29.457,0,44.365-35.849,60.143-73.796c16.307-39.236,33.178-79.804,64.068-79.804
			c31.292,0,51.541,40.832,71.125,80.316c16.785,33.835,32.759,65.903,56.875,72.115v146.236c0,14.114-11.486,25.6-25.6,25.6h-25.6
			V307.2c0-4.71-3.823-8.533-8.533-8.533s-8.533,3.823-8.533,8.533v170.667h-51.2V187.733c0-4.71-3.823-8.533-8.533-8.533
			s-8.533,3.823-8.533,8.533v290.133h-51.2v-153.6c0-4.71-3.823-8.533-8.533-8.533s-8.533,3.823-8.533,8.533v153.6h-51.2V332.8
			c0-4.71-3.823-8.533-8.533-8.533c-4.71,0-8.533,3.823-8.533,8.533v145.067h-51.2V256c0-4.71-3.823-8.533-8.533-8.533
			c-4.71,0-8.533,3.823-8.533,8.533v221.867h-51.2V332.8c0-4.71-3.823-8.533-8.533-8.533s-8.533,3.823-8.533,8.533v145.067h-8.533
			c-14.114,0-25.6-11.486-25.6-25.6V332.8c0-4.71-3.823-8.533-8.533-8.533c-4.71,0-8.533,3.823-8.533,8.533v119.467
			c0,23.526,19.14,42.667,42.667,42.667h392.533c23.526,0,42.667-19.14,42.667-42.667V307.2h8.533c4.71,0,8.533-3.823,8.533-8.533
			S508.177,290.133,503.467,290.133z"/>
	</g>
</g>
<g>
</g>
<g>
</g>
<g>
</g>
<g>
</g>
<g>
</g>
<g>
</g>
<g>
</g>
<g>
</g>
<g>
</g>
<g>
</g>
<g>
</g>
<g>
</g>
<g>
</g>
<g>
</g>
<g>
</g>
</svg>
