<?xml version="1.0" encoding="iso-8859-1"?>
<!-- Generator: Adobe Illustrator 19.0.0, SVG Export Plug-In . SVG Version: 6.00 Build 0)  -->
<svg version="1.1" id="Layer_1" xmlns="http://www.w3.org/2000/svg" xmlns:xlink="http://www.w3.org/1999/xlink" x="0px" y="0px"
	 viewBox="0 0 512 512" style="enable-background:new 0 0 512 512;" xml:space="preserve">
<g>
	<g>
		<g>
			<path d="M59.733,324.267c-4.71,0-8.533,3.823-8.533,8.533v119.467c0,4.71,3.823,8.533,8.533,8.533h51.2
				c4.71,0,8.533-3.823,8.533-8.533V332.8c0-4.71-3.823-8.533-8.533-8.533s-8.533,3.823-8.533,8.533v110.933H68.267V332.8
				C68.267,328.09,64.444,324.267,59.733,324.267z"/>
			<path d="M366.933,392.533c-4.719,0-8.533,3.823-8.533,8.533s3.814,8.533,8.533,8.533H435.2c4.719,0,8.533-3.823,8.533-8.533
				s-3.814-8.533-8.533-8.533H366.933z"/>
			<path d="M512,298.667v-256C512,19.14,492.86,0,469.333,0H42.667C19.14,0,0,19.14,0,42.667v221.867
				c0,4.71,3.823,8.533,8.533,8.533s8.533-3.823,8.533-8.533V42.667c0-14.114,11.486-25.6,25.6-25.6h426.667
				c14.114,0,25.6,11.486,25.6,25.6v247.467H8.533c-4.71,0-8.533,3.823-8.533,8.533v170.667C0,492.86,19.14,512,42.667,512h426.667
				C492.86,512,512,492.86,512,469.333V332.8c0-4.71-3.814-8.533-8.533-8.533c-4.719,0-8.533,3.823-8.533,8.533v136.533
				c0,14.114-11.486,25.6-25.6,25.6H42.667c-14.114,0-25.6-11.486-25.6-25.6V307.2h486.4C508.186,307.2,512,303.377,512,298.667z"/>
			<path d="M145.067,324.267c-4.71,0-8.533,3.823-8.533,8.533V384c0,4.71,3.823,8.533,8.533,8.533h51.2
				c4.71,0,8.533-3.823,8.533-8.533v-51.2c0-4.71-3.823-8.533-8.533-8.533s-8.533,3.823-8.533,8.533v42.667H153.6V332.8
				C153.6,328.09,149.777,324.267,145.067,324.267z"/>
			<path d="M452.267,273.067c4.719,0,8.533-3.823,8.533-8.533v-204.8c0-4.71-3.814-8.533-8.533-8.533h-51.2
				c-4.719,0-8.533,3.823-8.533,8.533v204.8c0,4.71,3.814,8.533,8.533,8.533c4.719,0,8.533-3.823,8.533-8.533V68.267h34.133v196.267
				C443.733,269.244,447.548,273.067,452.267,273.067z"/>
			<path d="M366.933,273.067c4.719,0,8.533-3.823,8.533-8.533V128c0-4.71-3.814-8.533-8.533-8.533h-51.2
				c-4.719,0-8.533,3.823-8.533,8.533v136.533c0,4.71,3.814,8.533,8.533,8.533s8.533-3.823,8.533-8.533v-128H358.4v128
				C358.4,269.244,362.214,273.067,366.933,273.067z"/>
			<path d="M110.933,68.267c-4.71,0-8.533,3.823-8.533,8.533v25.6H76.8c-4.71,0-8.533,3.823-8.533,8.533s3.823,8.533,8.533,8.533
				h25.6v25.6c0,4.71,3.823,8.533,8.533,8.533s8.533-3.823,8.533-8.533v-25.6h25.6c4.71,0,8.533-3.823,8.533-8.533
				s-3.823-8.533-8.533-8.533h-25.6V76.8C119.467,72.09,115.644,68.267,110.933,68.267z"/>
			<path d="M281.6,273.067c4.719,0,8.533-3.823,8.533-8.533v-68.267c0-4.71-3.814-8.533-8.533-8.533h-51.2
				c-4.71,0-8.533,3.823-8.533,8.533v68.267c0,4.71,3.823,8.533,8.533,8.533s8.533-3.823,8.533-8.533V204.8h34.133v59.733
				C273.067,269.244,276.881,273.067,281.6,273.067z"/>
		</g>
	</g>
</g>
<g>
</g>
<g>
</g>
<g>
</g>
<g>
</g>
<g>
</g>
<g>
</g>
<g>
</g>
<g>
</g>
<g>
</g>
<g>
</g>
<g>
</g>
<g>
</g>
<g>
</g>
<g>
</g>
<g>
</g>
</svg>
